<mxfile host="65bd71144e">
    <diagram id="XytWljsK7I8FJwDEsS09" name="페이지-1">
        <mxGraphModel dx="1625" dy="617" grid="1" gridSize="10" guides="0" tooltips="1" connect="1" arrows="1" fold="1" page="1" pageScale="1" pageWidth="827" pageHeight="1169" math="0" shadow="0">
            <root>
                <mxCell id="0"/>
                <mxCell id="1" parent="0"/>
                <mxCell id="2" value="" style="image;html=1;image=img/lib/clip_art/computers/iMac_128x128.png" vertex="1" parent="1">
                    <mxGeometry x="150" y="180" width="80" height="80" as="geometry"/>
                </mxCell>
                <mxCell id="5" style="edgeStyle=none;html=1;exitX=1;exitY=0.5;exitDx=0;exitDy=0;entryX=0;entryY=0.5;entryDx=0;entryDy=0;fillColor=#0050ef;strokeColor=#001DBC;strokeWidth=3;endArrow=open;endFill=0;startArrow=open;startFill=0;" edge="1" parent="1" source="3" target="4">
                    <mxGeometry relative="1" as="geometry"/>
                </mxCell>
                <mxCell id="3" value="&lt;font style=&quot;font-size: 35px&quot;&gt;client&lt;/font&gt;" style="rounded=1;whiteSpace=wrap;html=1;fontFamily=빙그레 싸만코체;fontSource=https%3A%2F%2Fcdn.jsdelivr.net%2Fgh%2Fprojectnoonnu%2Fnoonfonts_20-10%401.0%2FBinggraeSamanco-Bold.woff;fontStyle=1;fontSize=30;align=center;strokeWidth=3;fillColor=none;fontColor=#000000;strokeColor=#BD7000;" vertex="1" parent="1">
                    <mxGeometry x="120" y="270" width="150" height="60" as="geometry"/>
                </mxCell>
                <mxCell id="10" style="edgeStyle=none;html=1;exitX=1;exitY=0.5;exitDx=0;exitDy=0;entryX=0;entryY=0.5;entryDx=0;entryDy=0;startArrow=open;startFill=0;endArrow=open;endFill=0;strokeWidth=3;fillColor=#0050ef;strokeColor=#001DBC;" edge="1" parent="1" source="4" target="9">
                    <mxGeometry relative="1" as="geometry"/>
                </mxCell>
                <mxCell id="11" style="edgeStyle=none;html=1;exitX=1;exitY=0.5;exitDx=0;exitDy=0;entryX=0;entryY=0.5;entryDx=0;entryDy=0;startArrow=open;startFill=0;endArrow=open;endFill=0;strokeWidth=3;fillColor=#0050ef;strokeColor=#001DBC;" edge="1" parent="1" source="4" target="7">
                    <mxGeometry relative="1" as="geometry"/>
                </mxCell>
                <mxCell id="4" value="" style="shape=image;imageAspect=0;aspect=fixed;verticalLabelPosition=bottom;verticalAlign=top;image=data:image/png,iVBORw0KGgoAAAANSUhEUgAAAUgAAADzCAYAAADkbo8xAAAAGXRFWHRTb2Z0d2FyZQBBZG9iZSBJbWFnZVJlYWR5ccllPAAAAyhpVFh0WE1MOmNvbS5hZG9iZS54bXAAAAAAADw/eHBhY2tldCBiZWdpbj0i77u/IiBpZD0iVzVNME1wQ2VoaUh6cmVTek5UY3prYzlkIj8+IDx4OnhtcG1ldGEgeG1sbnM6eD0iYWRvYmU6bnM6bWV0YS8iIHg6eG1wdGs9IkFkb2JlIFhNUCBDb3JlIDUuNi1jMTExIDc5LjE1ODMyNSwgMjAxNS8wOS8xMC0wMToxMDoyMCAgICAgICAgIj4gPHJkZjpSREYgeG1sbnM6cmRmPSJodHRwOi8vd3d3LnczLm9yZy8xOTk5LzAyLzIyLXJkZi1zeW50YXgtbnMjIj4gPHJkZjpEZXNjcmlwdGlvbiByZGY6YWJvdXQ9IiIgeG1sbnM6eG1wTU09Imh0dHA6Ly9ucy5hZG9iZS5jb20veGFwLzEuMC9tbS8iIHhtbG5zOnN0UmVmPSJodHRwOi8vbnMuYWRvYmUuY29tL3hhcC8xLjAvc1R5cGUvUmVzb3VyY2VSZWYjIiB4bWxuczp4bXA9Imh0dHA6Ly9ucy5hZG9iZS5jb20veGFwLzEuMC8iIHhtcE1NOkRvY3VtZW50SUQ9InhtcC5kaWQ6MkRDQjBBOENGRTVDMTFFN0ExN0FERkI5QzhFOUNFNTUiIHhtcE1NOkluc3RhbmNlSUQ9InhtcC5paWQ6MkRDQjBBOEJGRTVDMTFFN0ExN0FERkI5QzhFOUNFNTUiIHhtcDpDcmVhdG9yVG9vbD0iQWRvYmUgUGhvdG9zaG9wIENDIDIwMTUgKE1hY2ludG9zaCkiPiA8eG1wTU06RGVyaXZlZEZyb20gc3RSZWY6aW5zdGFuY2VJRD0ieG1wLmlpZDpFN0QzNkE4Q0ZFNEYxMUU3QTE3QURGQjlDOEU5Q0U1NSIgc3RSZWY6ZG9jdW1lbnRJRD0ieG1wLmRpZDpFN0QzNkE4REZFNEYxMUU3QTE3QURGQjlDOEU5Q0U1NSIvPiA8L3JkZjpEZXNjcmlwdGlvbj4gPC9yZGY6UkRGPiA8L3g6eG1wbWV0YT4gPD94cGFja2V0IGVuZD0iciI/PmISOVIAAEc8SURBVHja7L0JcFRXmu/53S0zpZSUQktql5DQvgskhBFGtrGpKuqZ1/Q01abDnqGm6HHFUDF+Uf2iPOGKdkX1RHvGjvaL8UQRU/WajsdM+TUVTY3ph6upKspgy0aAQIBAu1ILSGhLLSglpZSZd5tz7k1hbCMppZtCKfh+xEVIpDLvPcv/fN855/sOo6oqIAiCIN+ExSJAEARBgUQQBEGBRBAEQYFEEARBgUQQBEGBRBAEQYFEEARBgUQQBEGBRBAEQYFEEARBgUQQBEGBRBAEQVAgEQRBUCARBEFQIBEEQVAgEQRBUCARBEFQIBEEQVAgEQRBUCARBEFQIBEEQVAgEQRBUCARBEEQFEgEQRAUSARBEBRIBEEQFEgEQRAUSARBEBRIBEGQ0IRf+Ic0NGKVHL17weOzAcNIwCzxW5JiYcItE9zmtHo+I9Vp9Cakjs4c6c5wjfaZLPnsxWBABlG2slazk9uceoVLz1jxZ3vrG/ap07PJwPGeJZ9xrVFUnmFAYmNsfUJlRf1yL/e1dxQofUM1wLHSkmX0uFHpsyg8hAkuIWfLOS45yb1kXffcTZf7+mtUWTav+3Oo5OZVhWdjNzlMy9SBPOI0y713axWt7bDS8mUi86w9vt20taQhFKpJvnfPJt+5V6PMzCUDz3mWbZvkIbiM1Ho+P8cR8Gc4x3i5++4Lyv2pTDBx7mXtL1pORG+4lPgmYVt5fTCeU3J0Z8rd/XtU2rZYdvn2Rdsuz3vZJHuTqTCvfVGBlNu793v+7//yzzB+H0DgiBgxiz+U1wcQGw2mP/v2+/z/8Mp/NKQTY4M26cKnb83/yyeHyXfAmPily3TOA1xaPJi/9503iUC+t5LPEpuaK73/+f/5N9lxF5jwMFJ/62dAM6IMDMsAW1bQTzpSBZeeOrloGY0OxEh//OPPfacuHASB3LNJCJ0hVlFBFUWAaCuw//Ph7xOBPLFkHTQ0/cD7X3/7tup2AyPwsJ6DlCoroHrmgd9W5BQ2J6czcQneRTt/Z/e++Q9/+5Hc2QMsLf+l2o6ikAeVgHtuZyMbYf0en5vVt97VJDW3HvT95sw/yj13AcLCFy93OmhIMgDHgOW/e/kEGxvz12x8bEADmeKZj/L+27n35U/riyHMTN6DX36Acs0Ct63IBYr474WqqjpDzzjQH+P56He/9P3bp3vJIAassHw/UefmARLtYD708ptLCiTMzNrV9m5QR0bIT5cQSM2ckUC1mEBKTfg+GBRIEEWzPDpyWGluo6MuMGZ+yRFHIQIJc6mgjI/nrLhDzM3HkIEAlNYOYCKs5BnXWSA5Us6R1nTSmSLIjyYXN3s9NhgcPKjcbgVa8WAJIYEkjVz16QKp3p9KX/blU1PpUnsXMPen9MFwPQVSIvfungXFarKrPp+V3MqiAqnS/tHdC8qtFjJAmfR6WFRNFU1k2JzMStK+rSFRTdMzyYqjF9TbHaCGhy9u3JEBj5FlUMngJe9+5jDI8g+p9gTyGUJ6+qQYZp4glioo86SfLlu/pEPP+Yiwztm44twjRgVSvt1xUPzTxb1SSwdxTugNLSfQukDypD/xKUnXl3SxiZnpUS0WkInqMuwyAhkmaG8sd/XF+K5eqzVtN/BgDDGDiVAo1GpVGGJVCNSQXHyU4kjD40kDFQTvij+K57wqadyKYCLiZFr6Gdfc8mI1S12w0JGWXdrl4VhZIVYLvW+t5rkQE0iBWMJ0wDGZ3Mu+nrg9DLGCVVLPtBNqHsm6zQ6QDw8LA84aTvoxKy/XdqjlTu9b4ZexIBlimRIF4qkFxS79vo9vMo33kAtU0nZUcv/qYk2fJXdODQc6eK/i/vmq8hNS0ZVa+VoL+Sx++T4WRl7jvA/SrfaD0ujgj/iEFNeqLcibzYfk9l5i4Zs1C1hZZvSlno8atwmEytJ2047q848sjocaui6W9IECuciHq6Nj5KZuvhoEe+rBez749/LX6uavmBV9xtpfPAvLmlHanHAI3fMj2gLQQTUASP/j2Yd/b13v3d8eqBgwAbSb1dxzqMAw8leeedlLXZV1z5XlnWaLc4eI5QkB6Qn1Vue8oHT1meW2tpdX7Yi2thXL7Y5amHXrRgTDLVsvjFcCIS0JTLu2Hlu0vT4kUaRMVHhIppa86DyMOkGU/4vGI3J3b7pBeVzV9bg+Zy2vjXzvX7lUdcM+i2bFMmtRF6ttqWuikAE/gxG4xFQXW5D9sRobFZim+F1hZWQMlEs3j6zavb7ZekjpvqN5ZQxDS37pz9WmEsjr+C1ZwJeWnF5WIFdusrOguD0gtfaCdPduDSAIglBpKC04xVcVaiIE0vKOHmMWQJmYBPFyU63U07NiY0uZGOPl67cOKwPD/oU/ZtlpIW0NIDEGuNK803x65lDQBVLVLFUVlPsukNo79mGzQBBEsyLzttSZdlSeoYugqhjAFCZVIY8I8t1BUDo6vrPiucfbbQek9u5kbUWaW36qhzo7iigCV5IL/M6tv1zu1gyUBEv8eC9IN9pelfruJGPTQBCE2xQvsfl5Z5lNNt2f1aZf1CWtLYY3aQu/0tUbR+TBQdtKPk+8dOOofG+YLkQto4wLlwJ0GxJfUXLeVP3MuTUSSIauJJMRQiL+fxfIfehmIwiiI2RnXhDKcon7bAKQpWWlBCy8tsfZ+9nVSqm794WAxfHW7Urp4rVaxTmu74pY7nNk4loT118oyAa+tPhUIMatAY30//r4BKgdXehmIwjid7NzHdzOspNAt7ERI2rZ1R+6bUpSQOkbJm62I2AtEVvaD8i9d0Gl+y7ZAJaYFH11nqss7OOKcj5eM4Fk/H/ogymyCL7rt18VbzZVP5G1/cBDUIN4ybDyTYAreH9Vvxb+GHvwQK+1roA1uPzlhKyBFVlScopPTtT2U6ryMmWsbbcicuTzgXSj+ZDs6M5cVuuGh60S0R1lzr1s0IHuWSukqol7HR0N/NayX/OZWUPLfQZvfKhgtRvzXW3hhbae/UJFecOToom6jpEC9dA96Yo+QqlB2rjhI6MqK4I66yGVJi9dDzRueZ7cw+y8tgF2uZVBbQGNhgCqpG7Mgj90NLBZEyANmZkXyUAraXvhGFh+RZBaCOoMeQTJaw5qJTD+8veRcpIkbVtGUNHqdg5U9zR5XoXjUNOCCpuVWceW5U3CvZEYmJ0jbjS7vJYQgZQb26zynf4aLid7yRBNsat3r3ytOZ22DzAv3/RU6l7zDHGvc4DLzzsbyDMYFkjG36zUwVGQu3r2kn/+9MmwGlVdDKOswJXmAhNu1V0FML7/l741QzsnFbu8LQ7gTUtH0pgsLnbz5pN8TdUhurGWMXHLvj99nTo/D8q9IVBds/4PXebGiYsDZhMwmanA26K0iCptfyOznEDKoNoswMTG9QVdwEwmYJMTgI2L1bdwKGrwthaSt1eJQDLFef0gBBAFhKzMdkpPnxSerfpAvNryc2VqhlRbYBFg8tAoSE3Nh0wvvfDhoq9xjvFiY9Nh+d6IPqgL3LJjLRVSxmoBflfFGVNFaUCGHB8cMaGNTQKlt7dSvHmrWqgo2/BW5MLGZzYjCSxHXvkpn7WlTp2aTffvNDWUhUal2VJY8h4841XDrRN8WvLkkiNxQtqk8MIL73A5RedoJhmGY5cOs5RVM0RYnPLIYIn3X/7bP0iXbgN4RT1qYckhmVhpcdEg/MVLp4WS0lMsb/YQkbIs+byqyhPXhVNNvJvLyToX1Eog98zEbQLTd59tFJ7ZcYwJi3CRe7QELQsQqQfyfGY1JrqPWyJRBWLAzd5adpJLSfi50t2nJ/Fg2MUHOMYfkSWLIF2/tc935coe044djwwBVO7218gN1/fTcEEmENt/oT/HbAK+quREoPfPB01QyINJ3XdB6uje9yQIpDZ/R7PtbLIBX1F+ks/ZQq2j+vW6Hb6ooAXotRIXpz+xUb584x8kjiYC8fm3XCwlGNSCDAM+v+Cs+cXnT657FYgKcOFkxK/MP2369ksnUG42oBWZm+fg87IcUlNLDg0p1EJrl/IA6GINnR7q7AO1vedlWEQgpdutB6WbrbqXwQcgkNT7s0UCt71CYjO2BNyPg5POhvG7dPecoHT1fuuJqNmFeHOfDKETLrbSaqH7VGUt7GpZcaT/zfpnHOfEmNCazAqh/JfIykXymYpj7OYUPS3eEo1QW0ihAskTw/7OMIhN7Yek8bFvGHGSoydTIv8H07OgZzJglnpH/2ArAxu7CYTnt7/HZ6QFnEc2ePm+6ATrjBvkTke12NJU+cTULl19o0k1NyL0viX5oUmYAAY60BZdLCFkylMrgUeZ2bjw24pPcVnp+vzxcjsG/AHask8CuafXLju69n6jS3Z275VvtcRoG74DWRDQ5rI5YHMyiHtdsSJPJHgCSZWfIw/W3QdiY8srT0ztbvRDKVgmIOsRLTZkzQQyLXOIL8g5S+eTVUleWhsX/h1mBqnnDoiXbr7+DQvyVsshydEPKsMFlmGDhhVGRwJfXnROyM13rE/3p0puEkAeHAO5seX72CwQBHngYJYVneTyMrWtNoHsO6X7GtWx+6DcbNsv9919EMYsXm+skZtaa+n2uGXz1mqLxyqo815gkxLA9EzFL9fXPqI3PO0GpasnRmq6jqGHCILoVmRh7lmuKKdPXYh2UQPYOE4UThkcAqmp5dADgbxy84dSRw+wYUIAkTOMloSbGm5sQbbLVPvc6fUVSL8rpzgn6FzkHmwWCIJoFmRq2iRfkHeGi4/zB2Eoy8sJMbjke6Pgu3rrBws/k2+3HVAGR/3n3QQQxCArwGWmAb+19DersvmCXRCMRQC6KdRX33RUHrgXg00DQRCKUFTwsbCtWJc1WVneghT0pNzK7dYCsbml3PvJJ4eUngErLARZLHXwGPWuFZl42CLwZUUgVFUeDwmB1M7tmJ8H6XanXe69U4vNAkEQTfOyMuq4ssKz2o4XKnLLTUX6j4iQ7w6A919+d9P3r+f/WR4dByaQUz2pharKwESEgVBReJIvL2wMDYHUHl4FZWwS5N5eFEgEQXRpiI+VhKL803xcjH9HWQButtlET5QE38d/Al/dZZDJvxVh+V1fDHlveqwOX5ALbFnRqdXe89psYmFZ7aGkG62vSXf77dg0EATRpCEn8zxblOs3pALJNs4BiArIgyPaIYHaZvPlzrNndfGlyU3YbSVNbN6Ws6u+36CXgKodkQk0+4zY2BIj9w/uwGaBIAiFhuyyVRUnGXo2txxgyj8a8ksT79LEJQy7vGjJqhaRQ7f2CMR65BMTVx1nv0YWJKM9vEpUX+7p243NAkGQBYTy0t+wifGaTtAcjYES6KmLKs3aw/A0gkcSCvPPGJKytbOlGWDIjSpNzYfEbkcmNgsEQTQrMiP5Clte5IKICABJDv4HUMs0zALM9ooTfFF+i5G3WjOBZHiepvUC5cqNZGh34HEMiIHGxGAZPEGwGWlOftfWY2yMTTvTKqhQi5TOb6YS97qq7Ljhe12zUqA3SaxIsXsQxM7uvdgskNWJI2lHJh5zNT5pbnZV+QkmJUl3mlUlaO+rxXpHRoKwtaSfT027HroCqe1hYkAhI4TY5tgvdbYVbKgaXDirhKEZvDHb9PqYGqCtWsojk5ny4IChoAP1EWmzkHV0s3PzHXRvIkOtSHr8CBgVSb2/MpIEbNwm4HdV/V+cPd6webq2jYauPgksKJ29ILV17+PzCts3kltH/9CzUKTBkXKwhjvB44l6RL3wqv56iaGZwvWOLamyzwKSaH2wSGcyu7jNm53YNVZQBSYelOlZEH9/+Shzb6oYwiyTNAP4yt0ulbyRzLEZqfXmvzr4MyzZELEia7Z9IH525dfyjTbqJRhOu8rQM2csZuAKsmjmnlPBuEd+rUVG5Wk85TARSe28mvc3Vg8l9z8xAfP/38f/xkXbgJmZ1w6y0i79BV89z4/GfdJaJpKpzE8DzLn1fJL0lUlJLeZDf/maUFLYhF0jQGjEhNsD0mfXQKq7VssEuoz59TGM7qggdWOq3blHeHbnB2xayiQWbghYkYX5Z7m0VNAEUvX3pFXON2u9zCcCuyWNWI/VvxIyt/SHvkDS9syxILvcILZ375U6O3L4vJXlY1tPcdSKfcgJysfnQGH8mUG0//OLHuihUCrIWi7QB1VFv5FkYPVku9ocC5udWWx68aUc8gIUyBVDBI4eKLbKo2W1FFuACz2hBk1gwZXknGMbbuyFqWlQTcZm/LTTPDMzgK/eejxY9/gY5mUYbXOncuceiM0dB4hAvrdxBBI0Fxu83gfP8o1R6+F/LWTkVnTxVP1WpTbVQDe4Miz2itXUAy8AY6ClUtdLex96BC7DyFioIWRFVhWfkOqv7BXrmrSjFhhutXVMelt4OHCZGQ5TWWljsO7vsfRYxsyDcvceSJevH92YHZT3X9wiF69ta2I4epHOLAj6nIp2cVpwvRZgz7KYqXtdUbEIQk0gSwvOsEW57ap2bOsqF2oU/ex0bks6EdzS48G8P4M2LbWW5AdnSC9uS3OgTNwHqa0jXSRu9lPTFx9cakBZlBHkqXOz45LdfGHhx2xKvDZzpaoS6TJqgF3M/4d4abLoA7Yoe1KoLv0wJARSn4ajbiRxJhV18dF5YWadTsXRRLpduCcSQZCHrMii3I+E4hxtrl5VAozPfshGoxYkGxMNfHHBGS4tcygkBFKLoTQLoNpjQaGTq+rSUzusxQLgcoN0qekoNgkEQRYQtlY0cFVlp8Bsoee+QsALaqpunLE+H5gqikCoCK71aEwgRRHUTVEg7KgANiVRf6ul0heZTKASgVSa2grk1o5ibBYIgjwQyaKiM1xqkpaiDAJMYEFllFX0rUFceV4Dm5dRFzICScWQT7RD2J//OzDtfRGYKOtDq72PeBJOz9whjU2A2NdT89BEAs6dI8hTDpuSdJ3LSQctmZkoBSYJ1CCjCpafBdzWsl9zm+xBXwRdvQVJw3rCwoArygXhWzXAxMeC6hWXVnwan33fBdIXV/5G7r9rf6CemIwAWWtwIA5twi0TYIvQQnv1xewAKkuRQRUE4IvygcvMqluL2zKwis2AIknAsGwEn5slcEmJ2jYX7aYXezieA9U9R+chc5TB4XL9bXBfGrJcR/BvuDdyyaStygqd1OewQENw/Jq4n0NPK1SJOtKE20xA85DkVYz+WkZV12RP9+oFkt4/aXCMx2fjYu0Sn7eliYmL1rNpLLalhR7FQERVvjsMcneffiwsx0ohHeRAH4WmZKLWsdenTyPQtO8BX5L2e6rHQzspJkxYURtjtLZE25QeLihr0zSrvQLOYI08dqT2zn1KRy+pY0kLTw4IapDRXAmtXSDduVOzFve1+g7L6skcwCdatXvdWXGMvdr4j/K1FmAFYYk2TzTZ4wWpqfUV+YXBd9iw0MyUo2k8o08AM2ZBnx7gBe0oygfC+XBs8GKDAp2KIBaQGhlJKh7Tdq2s19DkAybgNqcBk5Sgl/1qUmP5jxhlywvrGLNpGgs2xKq5oyNHutz4Q2Xc9WWag4AEktEF1dEH8s2WQ/DyvmOhIZAqfKkMoqxlV+Eri06xWen/oF5pttE2vGjIEBUa0vDl1s50ZXh0is3L0M+4VdWHTNNQGOVVPdFEdDjwJdnAJscDE2YlHTYSFFEGlu7rpCnj/eGFzCICqepKC0xs7Gmwx7Vjd1hBDXh8pNzjwPzqvhPCnhf/jgmPnCRWOakEWNlkPHG/tFqwWFxsEFJgIUEWyJb2A+LlmzE0pwGNSFvRmgR9KV38be6s8V27UWuq2hrUuUjjLp+iaO/Bxae62PTURtYWuYeG/Sy6l8kvKnLPIHGz7wCbadcsg5Dzsv2CZ0pNBcvr/+NfcSUFHzGyzAMjSKqq6GnNFuKtte3yS4wlujvg5eyx2DlXZPmpWkYfNsPezufm9Pl/6sKCeXJQxoet4o3br9FpN4aGG7IrVQIaCswSN7ubGF1dL0OoCeTDdhNfXHCa25K2R2ruAoblH308I/kZ3eukTk2D1OYAtiQLVMGsLVzpcTmhMUekm/rENdZcvM31nD2BuscLLjK6yo+zHlQF526fUMTrzQflGy3FjKQHnqwYqjHEXVWGnSC1t+1XJoZ/xsYmBW3aLqjJKvj8LWe57M1eoBmC1SUUleO0li9dvQniR38CuaNPuxNtk2iozKEzfhea/hFFMzbldZ7qQJ5M9/rSjaNSWw8RRwMJc+m0HTGxpHZHjtzcEdTzr4IrkDm5fWzW5osQZtbn3h41L8fobjYVSbmzF8TT50C9fAs4Ko70QUMqqQOjH1yO+zQRJPji2NlaTAStUh13AQjM6gWS6gmN1Ou8A1Jjy6shK5CamBdkf8xuSdUWLRY985bRBZKuZitDo6A4x8nrOVh1MjgEQTYcvosNP5R67wJLUwHCKtPF+/WE5XhQRiZAbOncLw/es4WAQKr+Z2K+ZkVmnjcV53q1rS3SMiFDdJmeXApLL3jk+yEI8uQhDw9Zxc8ajyqDTqAeJ8MwQVmolQeHQGrpOBCyFqRQVNjCF+d9pNDNnoEEnTMYaoggT5173dxyQOkd0BLd0lVo4yd2UfHhAUbGQWlqPRSyAqkZhiUFp5k0uz+uUl3mqRjA80IQ5CmyHokL7Pv9hXeVUaeefT8Yyw6MCoyJA3XSBWJT616x3RGUY6bXRCDZlJRGfksGPU864NRFCII8HYidfXulSzeSYXpGP5YkaMLDgeLxgUQsU6m9PSir2WsikHRTL19aeJ7OLSyZIxJBkKfPvW5sOkwXZ7XYejZYEuT3RIlIqs5xkBoaXw9ZgaQIW0s+ZGOj8TwWBEG+FMe29gLl6vV9WvIWGlYY7Ok1gViRs24Qb7TkiE3NlSErkGxGej2fna6tUNHYawRBEOlW8yticzexmVj9NNBgR4bQjGGyAsqQU4vxDlmB5PPzHExpwTnGatVTfiEI8lQjd3TliPU3fqTSuUea1Sugc+L9uUBlOWBPlG4ZYmfmQW7r2C8PDMSEpEBqIllVeoKLjvIfxYCLNQjyVAtkS8cB6drtGO0QAS0p7rLSqEXk0SS6ivb38gKpBerRlXFZAunKjWLJ0bMnZAVSyM0+z6UkAT0UHKchEeTpRZkc46VbLYcUx4CeATyQxRk6NWcNB668BITndwEXGQmMV1w+ZySnu9lMZx+orcY2ja+tBZmW4WTL8+qZxDj9YVElkacJXKB8gHjj9kHf9VvlIPkCCw6hlqPoA8YeB6aDL38QdvgvX+O2pGt2pW5VLmNGkvdXPCKIN9sOSW0dq94Tya51wfCVRb/m6LGwHhm9bOTpgtUWIjxYEEQgL988KrU6QA0TAlu4XjjONSMFTM/teM+897kPuaIcB0RaiXAGsOjLMiARS1Js7gLZ0bc3ZAWSy86+wKSm+jNvb0CFRAMAWW3ToSnzJNHytJeD3NZarLZ318DM3KNzxD6q7CQJuHhiPVYUnREyM4foz0yVpSe45HgAn2/56GT/IpA6OgZyV8+qBXLNE5HyOXkOPj/7vPhFwx511q3PPWyE2OsF14jRNp/iMjwSODTxAk3AMj4J0o2mV9XBoXbGbJnWjt7gOQ9pTzIIvEc1CW7gGC9j4t1suNnFJqc+kdnSfV9cfUPu6NbOo1pIic0s1+/mvcBmpAK3veKfHhhb1aUnufSUv5eaOh9YmIv72LpGqvPzIN3u2OdtvFVjriyrDzmB1D6kKPs0n560R7zVqcdebiTzkQbSMxDQRk5ldMQsu9zJMOeLJRXNacdR0GMaWFUCXuRh3h2jznpsike0qm5vLHldDLNp04DlwHfeR1V5sgSSpvNTWjrAOzz6Fs2UzTL6cQIqxy4MutoxyFouQ54IZ5gZ2KgIJ2PbNAQmi1uVZDOYTS42OnKAXP0QZXayEWYXhIdPqlw4+Xn0gLAlqz/Ui0JxDlvF+utH5IER7fgM/bC/JX9DEz96/AJfsGXIvHvXmQcCmZHTxxXnnWeuNO1R5jz6QXpLGVv05AJySa3tINy89RqEqkByGakNbGoyQGMbbJzEFNpZu8C4pkkB33hF9U7Uw5grXZ33WpUZjx1mPXZl1m0HSbKoPtHKTE2lKWMTOdLsPK+fyUOem84oqAqpJBUUWQKW5r8URS3ECjw+LVM2V1EEQkXxr7nNaU5UlidLJNXJKZBHx7Ws9Iw/PaCqPnwoHfPlF2p1CoIdzGa7lpWGnsRIt8KYTUCEknzldYEhwsuxJuCfLa9jX/vL73EZm0O63UiNN16VO3u0GGnWZl1+NktRgCGPzuVuBqGq7PjXX8NuK/2Q/Yx4o9daALT5TGaZgYqIaN8AKNdvvwp/DT8MTQuyrKyRzc5qAKul+oEZzUBIiyU9boFOIsn3RsD3//72XQgLAyKKxGT3AR29YM6rme+a2NHjSd1u4hZ4SP2q/oNUiIulnSPhT2jk8zsWdAsC/bEia4H6bFYK+RwZz1x5EuF1K5H5hvOnfqmRC18V/9ES7rkvOz1drSUDq0LPa6GDraRqZ60rKmk7Nr7W5P53dvLTkBVImvPR++nlN9WxSWBMAgTS41VqPZLH5LaXT7Lbyj78hrFVmn+Gzd/iFK/etjN0AznDLqqR2rhDI2u8Iog9d6y+K1f3mHZsPx9yAql9UHHeR1x6UrU6OErqXdFGwpC2JbWtCCrIM7OgfnZLq7gHlaEdGcE8ODebWgUqcZlo1BDzFWeBeXBKG6MwD+LptZ/QlTh6ihsVXgbnOJ8y8/JLpVj4+uA0v69n1Re+XEmluipKpC2S5hIRThc8QjqGV+rrq5Wut2Sqs3OBZe3xb4tirOHAl5eeFPJyHd/QkaS0Sa4o5wwTG3kEXPOkDFTNjWYWU0hqu5vNIDsnQGpqeWWlAsk+rsLisjMuEJHUD0jdQBl+tKInlcuYBXKRxmtamDvST1N7EDL1yIv5aklj2kvEoK7qbWpjNCT56o3Dyt0hUGh/55jln4261+QPl58NfEneqcVeairM+9hUmE1eL0Mg20y0Ix0mpkC63XmQWrUhKZBCeVkjV154itXmV9SQ3z7D+MWRWTg/h4oit3CxukCyuhDSFUtmYfPrQ5eeRl7/gyDBbp2hjNjSVuyru3oQ5ua1RLZLGo7a5m/yRDT6RaDzq1XnuS0Ziy6osHk5Z7lt5Q1aKLe8lEj6y4kmxZjxgNLWZZM62veHpEBq5nFh/hnGFqVbkRhhgCBPLFJH5z65tUdLVMOwyx3GRxNSSHpW8PhNwJcWnWJj4xedduLsdokvyjvD2OP1tQJlaS3R1sXILagjYyA33D4csgLJpac2sHlbiFIKeNYxgjyp4tjbky5duf5DbWO4f6ppSS+KKhiNsQ4zg2n3NieXl31uWS0pyDkj7NwmsTSnZADpFFXiZsuuaRAvXt8r3m4rD00LMi/HwW8rOsdYzf75A+TpdRHVgF4TWA4XJKQE8kbLK+LnVzPpFjdtamrZmmaBEVXgbDYQXtz1Dp+T3beslhQXtQjPbP0VY7EQ1zwAgeR4UOe9IHX2gXL3Tk1ICqT2YEW5Zxi6AqdiYPbjQF1ImPCoS1nkUtU1292gSJJZ8XhAmZ9f8lLn57RtVPK8h25tsa5/QWJbCkgcnU5ebLx1WO2+4889xgbSKICxCMBkZRLhKzkVsEean3OWTYjXjm2g2XuWVmF9S5A6NwdSc+sBeXTUHJBePe4CZNPTG9iEBJCdk/pmWI590iTpK2Pj17YEf/Ml2lzsGvU+KnQ+SQvbUmlOzodH2kd8pOr1kMtHXRbzmhVPmGlSjY8Bhi7WaRmlF7cfFYsVmE2bAASTe92rVSZl4hO18tGK7qGOr20BexCZurD5m/lyEwPDfLURMMxXjWh/xMfDL/UnL/D/jgpf/ztkBbKzd5/c1lmgDbSBhhX7SNu0xwJbXX6Oy8oaClggszbX8SU5Lqm33wa03YaZl/RHtMUiUQTf59f28C8+v4NLSKgLPYFMiG/ma7Y2qIND1apzgjyl+QnSxa/v/lW//PK1dq3STa50b+QanvpIRlYJoiL6ICEuk6UCKZi+vBFtFZ75skPT//F4gU1LAIgMH1qre+LLi0+G/U/f5xkafcSznsXCOMm4wYFHtDGbIvuE/MCtijXDLEwzUZHARtuApad1sg+Vm+zfyE03dquKf9HgoVh+urfPL3QLa5PqwlZI7XcVeLA3cuFtFb+CMl+bjqCvVZWQ9cCUxpuH5TYHyESMuACz9qgSqezUJDDtrji2Ii1JSnRzz1YcYy9ceUuemdPmMJdufEQgicGgdNwBpbv3BdheGXoCySUmeE07t/5CvlBfLQ6NkPZgCs1tMF9fZVfVRwghaDNkWrumDVpruP6fs4reMVTQO8/CbgT6A57RBZIFv0u7NvXAZaQ6+YPf/WvuuR3ZrMB5idXmVlSFJ+IosWZilfHkZw8LpKJwYDK52ZTUxrUqVlNlWb1pFTGx6w1158zfP/QfzLWDtSDKB7Ter+vgWbAwLrCw0zTkVJl12ZXp2b3qNNF+GnJK6ln1iKBQS55cqs+nWfOsJANL6l72zgNMTgIzTywgEbQ5Vy3EwC+yVDwWkmBpVSXRFkde6JunysytoD1zmrgqyiN2kDBB2TUktjaXi41NB5QJFxErQesZy76tTMrFFglcceGQaeezZ1Y84JaUneKSk95SqLGlKksf48D4AzfmPSDdajsk19w9xmVkOENKILUPzcm+QJfoge3UK4zlHs8HM8uJ4UJjVPUBmv6c9XtDtKHT0V7yz9Mx/kQWrH9Kj56DQTeTR0UAWCOB4Rgt4J6LsGoXhJupewlsJPl/zkI6DI2kERxcce5pLjN9zSw2c3UVjRw4D4gxgUxNcZHrA2Vs8hix+rgHLjIZ3NikuAdTAPLwQAxxwyOI9WsmrzPThCWqRL5KskVLQCGTAcrns9KfM0S0VK/Hqrjup6tTs+nK1FyaSuP7RbFA68h024viJQI7B+qcjwguEdhZj3ZqH5uZ1aRnCApUvUQLdS+1FV9F1l16VZ+a04UDDIuk9MW1o3J7j+adMEyAkXJeSYu75reXHl/NZwolJU18VZFDvjeQo7pmyQhsWrrzs/qDys1tOTQNGhHID0NOILnMzCG+KKdRudlSSUZb0osfj0CqPtkKXhpH7SYjs6KFCFIh0xqjVm7+CBjqetIEAdZwcm/UbCcVbjET9yqCCGAYGR1JJYSR/2MEGumka6pFcHKx0Q4uKb4FojYNqSwvsQLrJu8xwUaGDzMWYZYIJPne6iS/51V9KlFO1sOlJ0+i/Gwc2PgYuj/v4T163q+07aQ0Wp+rrlP53ohNmwNmGUlPm+bjVe+8TfX4rKT9momlaVPc3lgmJqqXy8oOPJtP/CYH3WKnzIvaqvGD+UzPPChzc5pQ0dhmzbMRiZVLvRyac4CK+1ef99H3PTAQ46u7ckTpHyCGgtnvVwVi2Kog5Gd7TTvKT6za4Hp2+wfi9eZfSDfagTEtZyTRDZEyyJ29ILZ37TO99ELoCaSm/FuLPxQ/vVKpTnSQh1IDSMEOuglNA/epuyJKq0hESoQuNpaMWFnA2GOACSeWnYnUP8drF0MXDWhYUpgwydoihrjY2F7VHD6t0t+LtI5ydlsHE2ftZ23hkxAW6QSRl0BWSWMmDrRZoBbGSvL5uVBukG9aqomPaheGE1LwRQVnmP/+e3/FPztcAx6fjVGJFcyqsjo3GyNNTmaq03MJ7LwYoy1Ceee0JCz85rRjIPDegIS96fYhX0sbKJP3gdtE+hbLfzlPqz7k3i6sbPt3UrApduC3lp7kMnP6Vv1s5aUn2eysd5lWh1X3SNmlJIDICBH/+7Mgtzv2iQ5HppCz+Gevm0AyOVvOMckJALfav9zoueC6qv7tKYr6ZeafBwWs6kkeOHblCR4SYlv4/d85QfWMzUup4+PjHMCGuzQB5HkvIwhuoElMLbybi4vHBBLIEwOfmOwm10nyz5OLusj3hmzEkiSXh3havig2Ltrht5iXRZmYyORSUuiRgtreDYZmu6LGjDZvKoFK3Xs636j4F7S0lIAq8Lu3A7ut7ISRZ+PS0ia5guyz4heXD8KEa9kzb7Rt6yoLSrvDJre0/zkRyPdDz4IsLGjnstObxKiwcmreAyforvZDS1/aBlI6P0ldWhOd37MCE00806KcFjY399yKPzM7s59c38fugiCPEIPUZNdqPRt+585jEdn5F1Sv26aODBdLHXf2qa75ZNKf7SC5Qbk/BerYNKgut+a6q/ddRMOIe72t5Kxp+7Y6w/deUUis0LSD0siEdqTskhOq9L8EYib13gP5ZusrcGB/sAXSv43B4KltfGnhKS57czmMOIHdkgZcchKovAUY4u4q4cRzTbCd5lMSmpjouH7gTV420jrExNr62KioITYeLTwECRlxzc3ug1x42FX9qTI6ZiYqKNPVdtXjsamu2WRlaiYdZmaSlMnxLGlsKoffvSMo2fSF0vyPpdysIfnijWS6GKXSEESaSAZ07/MrKkW/51lQp2dAbOuu9N5srjZXlDQERyAXBFFL8BlYuqFFTePKihNh/4vgJea8lUtPvMJGxwyoLCfRFTDVxLmZiDAnF29HIUSQDQibEL8wf0n7sNN/Na3JZ22yS2xx0Wk2tf6oMjikuffaesLCfOTXXG79W+Jm3xsBtaNzHywnkCrDSP6c8HqWbPqVZsr2n2et7WqQyVea+NIs+HWR7udbfViakLV5iFx4HguCIIbhnqk8JvzVaLHScLNWnr4P6tAEqDPzeoQYPWNbm5tktflHukWP4YghNjgM4vWm1yyH/uJnS1uQPjFC9ehHCGjJYTmzto+PsYYBG2bVojC0+b/4OGAiwp2KrPDslqw6xmYbwqpBEGS9MRXmtbPhlu8pz1TWKvfHM+XO/r3gvF8gz83EKpMTZmZiGmhIouqeB5lcIHpBGXeB1HArU2y8skeo3HF+UYEkluEsuzkF2LwM4GJjiAhGDbExkX1Mqr2RjY4bAEu4i81MuCIUFLVgVSAIEorwmzOcsDljITT1vYWfyz3d6UrfcI0yPZOsTI2lyf0jO5RJV6Y6OGRniSUpd9554VECyaj+OUWp3VEgdfe8wGWk1LNxsQ5GMHvZ+Fic/0MQ5IlEdk7wMD8To4yOlKhuKcb0/K5TiwokgiAI8lVYLAIEQRAUSARBEBRIBEEQFEgEQRAUSARBEBRIBEEQFEgEQRAUSARBEBRIBEEQFEgEQRAUSARBEBRIBEEQBAUSQRAEBRJBEAQFEkEQBAUSQRAEBRJBEAQFEkEQJIQJ+MjWgXtDMX+qu/z2xP3pHEHg3U9LAamqykuSbH5xd/XfVZQWNqz09/9w4YvDHY47++j7MNrRuitHVmSzNSzMWZKfc7pmx9az61kelxpu7r3d3nnQPeexcxznXVWZgsrTY4MLsjef+faLu08E474+vXj14LWbzYdJ2/QyDCsZqeuSguxT397z7In1LOfO7r6cz+qv/WRmds7O86srZ4okSeaoyIjhP9u350f2uBjDZ0w5x8b58583/G3/0MgOs0lwaUdFr+a+ZNnMsYz8rRee/Wlhblb7hhfI6Vl38u02xxuDw6NgNpufmhGEntnjE31AOw35dkUCScrKdufuYE1jU+tBhbwPy6y6MUF0hBVibFF95Nt1FUjyTJVNt9uPTM3MAem4qy5TikXgXYNDo6dTkhNcRu+rf3C0+ur15n0mswlYll19Xft8YA0Powfcr6tA3p9ypd9q7TgyMTkNRPRX/T4+UYT42BjY+/zOt6m+Gb2vufn5mLaunrfbunrBQnSAWWWbFiUJOFJPlRUltJw3vkCSh/GGWcwQHhZGBNL0VAkkFQKe51c8ihNBlEwm4Uh4mAWMCmQYeQ9qHa13eVDvgd6LT1IMCyQpm8Msy/woGPdlIvcVHh5G39OQQPIcR99j3T0kYp1LYRYL6W8+QwJJ64j2W1ImQTmhlL4PFUaqAxaiA0YFkpS3J5T7P85BIgiCoEAiCIKgQCIIgqBAIgiCoEAiCIKgQIYmdMVNlmUzlgSCPF3wWASLoyiKdiUnxPfFbLL1YYkgCArkI6FRBjIRC2JJkUsJqYegW7HofqzV7slaDPq8URFW50u1z/xdVUVJHTYXBEGBfCQcx3rCLeaG8PCw6lDaKM74/5aIG0xd4WCJJB0IwiwmqCjK+/W3Xth1ApsKgqBALkpudlbft/fs+ql73mPnWTYkdr8TLZQZlgXX1HTSzZauX/b1D1IhNyySiqJHVGSlp57ZvbPyP2EzQRAUyGXZUVl+PhQf4vef1B2Zmp6GYBiPNAjO6/VA1ua0xn0v7v5fszLTh7CZIMjTyYZfxW5q7qi8frv91Yn7Lhq/ash6pOIoEzc9NTmx/fma7e8U5me3YxNBEBTIDUlXT1/mHy98/vd3B4Zred74grzX64Po6Kj+53Ztf49cp7F5IAgK5Ibl8tWmo339w3slSV51ppwF25FmcrGYTLC1pODDbz1fcwKbBoIgG3Yf5Ecfn/ubppauQz5RAt5AOijqV0uyAmaTABWl+b/aVb31A2wWCIJsWIH8w/kvDn9af+0t97wnRlu1NvBesiJT+xFSkxPqnqvZ/u7m9BQnNgsEQTaki331+u3a+oabb7hmZmNowk1DizKqvjATtym677mayvdyt2zGaBkEQTamQLZ39RZ8fqXxx4PDznKTIBje70g3l8dusvU9/2zVOzXV285ic0AQZEMKZP+94Zi6+ms/7u7t38/x7KrT6i9YjvTskYiIMNhRWfLLfS/WHsemgCDIhhXITy82vNXS4ThCF2UYxtht03lHluOgKG/L8V07KnFRBkGQR7IhFmk+/uP5o81tXX8+P+/VNoMbgW7n4RgijgVZp56rqXovIS7Wi80AQZANaUFeuda054srTW+MT7oyWc7oooyqpS9LTY5veHbHtg/yc7Y4sAkgCLIhBbKts7vgs0vXfjIx6coJhjjSKy4m2lGzo+KDbWVF9Vj9CIJsSIHs67+X/IcLF/++587AXpZltOw6q4XKKj1Anb5H9bayX724e+dJrHoEQTakQDrHJ/hPL179ye12xwHiERveziNquR3NsLU0/1fPVJX9EqsdQZBACMlFmk8+u/S3jTeb3+BZDhjWmIbTOG2GWKBFeVtO7ntp95tJCfFurHYEQTakBVl38eqB261dB91zXk0cjaZ4VFQFstKT656vqXonNTnJhVWOIMiGtCCb2zrL6xtvHh2bnCowmQRD4kizgqtEHFOTEpp2VVd8UFyY14LVjSDIhrQge+/0J5/95It3e+7c20O/N35sggLWcAtsryg+XltTjbkdEQTZmAI54hwz/6nu8s87e+7ulWXV+GZwurJDrMfykvwPqitLMYwQQZCNK5A0O8+N2+1H6D5Fk2DM6xclGVRifZaV5J16flf1ewnxcRgpgyDIxhTI3/+p7silqzeP6icJGhNHelQrze2YlZ58fv+3n/8PmempeOAWgiAbUyCv3WiuvdrUcmRiajqdfm9k2pFan1Qgk+Jj2/fs3vG/Z6anoTgiCLIxBbKto6ug7lLjjweGRqt5g6cR6tajAva4GMfOqrJj1dvKzmPVIgiyIQVyaMRpvXCx8a3O7r79iqwazO1ILEdF0eYuSwtzT7387ReOYbUiCLIhBdI5Psmf//zK2+2O3ldpCCDPG1uxptt5aKx2eXHe8dqdVe9jlSIIsmEF8tqNWz+4eqP5J/NzHhAEwbA40kiZ3Mz0s3TFOi01aRKrFEGQDSmQlxtv7r3SePuHc0QcOWI5GouUUbQ0PekpSY3P7dr+Xl5OJuZ2RBBkYwrk9abWmj+ev/h3o2OT5cAaz+0oEfc8KiKi//ma7e9UVZTUYVUiCLIhBbKn9276pWs3j/YPOqvpMat0ztAIVBwjrOGwfWvxPxHrEcMIEQRZEx5LsorPL9/4cUt7zyHqEhs+qpWIo8BxkJeVcfK5XVXvYhUiCLJhLch/PfvJG00t7Ye8Pp+hrOAUPdqGg+L87JN7n9/5s8T4eAwjRBBkYwrk+c8vH7p87dbR6Vm3naYvMwKdd/SJPkhNttfrizJZuCizHg2GZSWjXsCXA56i1WswUP1XMAjW8yEokIvSeKul5pO6K3/rHJ/M4Xljnry+KKNFyvTtrCw/VlqU1/Q0VhbpuNJ634PH67XRhCDB0BCz2fyeIPDeIDVkOViNWZZl/kmq62ANQiiQQcLR3Zf5+0++eHds4n4BR8QxGPOONLfjczur3n3xuY104FZwGiYtPUWLNZfM6/1EZMArcM/NE0uSM9BhdSttU0x0f3xcbFCEIDzMPBEWZgajWkDviwwCUQODwzHrWc5EpC1GhW2hnPkg9EEUyCAxODxi++Jy4xsDg6M1NASQDULiW4vFDJVlhe9Xlhed2EiFy/GcVzDx72lCqRrrtHQO1zU7l7z+FqQviiYFCUZ/41g2aHPItqiIoajICC2bk1GB9Hq8h+bnPbb1LOe5ufkYOuduLIGLoi1oxsfYzpgFYRrlLgQEsuF685HrzZ1vUGEz6lrL/lDEwtzMk7XPVP6nxISNtShjj4uTbJGR/Xoxr77j0lh1Ikww5ZpNX+9nkiTZYlwd9bKwmExBOyOI4zgvz7FBMdrpFILP57OuZznPuN12amAAGNkvTNoOKZOI8DCnPT5WAmR9BfJPn1169dK1pqO6C2bswK0F9yI50V5fu7PqvczNGzN9WZjF7GIY471WJdbEvNcTMzo2vm5u9p3+e3ZJkszBcNdo/RKXOGgCGRURMRQREWFwvo3RTsAk1hsVqHW11u9PzWSSstbux4j3RXd9RNuiBlDq1lkgL15p3PdZ/dU3neP3M43GWGujuCjRRZn252uq3ist3LiLMhaLeVrWVmsNVhQZcHxeX+3Y+GTOej3L5JQr0yeKtQwYi4KiAhsTFQmREdagDXrRtoj+6KiIE0YEkuo+DWKYuO+CoZHx8vUq5+HRMeu94dFKH+kDRgYjmqeAenFxsZtwx8d6CmRXd1/mJ583vN1/b7jYTE8jNGhgeIk7GRUV4XymquzYs89UntnIBRxts/VHhofrZWKw887Pe2nnWbeO2z8wvGNW8w6MWDWqNm2Slpr0oS0yMmgCmZ6WMhkWFuYyurDBMizMzs3BiHOyZL3KeXbWbR91TtRKRCCNzOErsqKd7xSzKboXpW6dBHLg3lAMca3/bsQ5Xm0ymQzHWFO3wGw2QfXW4uP7n4DcjlGR1qGMtKRT1NXR55RWb0HOuueh7+7grvV6Fkdv/96ZmVlD+Ttp/XLk9xPsMe3Bzr5EBtUhNQiTkBzLwfTsbFKHo3ddrPUR51iJaFActf4EdCuVqSU2JroPpW6dBLK+4caPOhx3XvX5JMOnEepnygBUVRT96jniWj8JBZyRmuy0x8W207JRVGMLNTNuN3R23/1Od8+dx75Y09VzJ3OIWK8er2jY7WOIlZaYEB/0c8qJmz1g9NA3TSA5FsYnJve0d/Xuf9zlPDQ8YiVlvVebiuCMJZI2CQLExdgcGWnJTpS6dRDIs3+qO3Ktqe0Hcx6v1qgMjXaqnlk8JzP13K7tFR+kJCW6npRCTk9JbOB51pAFqVs2LMx7POm32xwHH/cztLQ7/tzj9SUbrmfdxR5KiI9rDvY9xscSqzQ5SRNwo4PRxKQLWjt6Xiau7mNdFOvrH6pt7ew9KpP754xY6uT3o6MiICMl6QrK3DoI5BeXru+vu9T4k4n7rnS60mbUtaZX3CZb+67qrR8U5GW3P0mFnJqS1GgymfpUgwIpEOuIrmw23Gx+/WZzW/Xjuv9bLR2V15pafiCKIgj86hfgqHsdZjHDloyUC7lbNgfd7bPHxbVnbU59T9tYL6++rBcEdtjprG1saj38uMqZZttvd/Tuo+K8cB+r9sYkGYhrXZefk3kWZe4xC2RTc3vl51cafzw6RsMIOcNzJT7S8SIjw4f27K5+Z9eOyieuQjenpzhTEuMbw8xmQ5bNQsd1knK/3tT22rBzbM336tEV1eu3Wl4dHbtfoK9Ar/69aESUjVg1JYW5H63FvSbaY72Zm1PrqJWrGByMaO4Aj0eEqzebj7R3dRc8jnbS1Nz2CnHrj9K9i0a3yFGjJT4upqOoILcFkMcnkH39A8kXr1x/o7uvv5ZaNEYm7DVx9PnAbDLBttLCEy89v+vDJ7WgSwtyT9FID2oBGqowUt60AzW3O442NN4+stb33dB468jtVscbLAMGD1fTV+KjbVHnN2ek1q+ZtZ5ob7THxTRQkTSyoq0P+iqMOscr6y5d/3Hvnf413Rd5ixgdV280Hxkn1qPRrFeSpEBMdBSx1FMxkfTjFMhR55i5rr7xx53dd15lWONHtdJRXiAjdUVJ/olvPb/rZ09yQRcV5JxJTrSf1mKYjW5FYfWtKFevNx/53R8/fX2t7vl35z57/erNliMzs3NaXRty+Yj1GB0ZBfk5m39PF67WzlpPdZYU5pyi7UqSDc75EqGi79HY1Hbkky8a3u67O7AmItne1VNw9sIX/0fP3cFaushkfLpKgezM9BO0HEK9X5BnlZ8YgbzwecNbN263/Y3b4wWeM76Fkgoksazg2y/U/JS4A090KFSCPc5bXpx7MnaTDbyiaKxRaRYOB6PjE8Xn6xre/q+//d3f08ErWPdKrCbzP//2dz//pO7K26Pjk8VsEM4tp9MoqSkJZ6q3lR1f67IuyN1yNtIa3keFwnAHIaYzbaeNN1teP/OHT//P1nZHcTDvte7StQO//fiP/9h7d3AP3YNpeJscuaIiwyEnK+OcPT4OwwsNEvCeiM/rr+2/1dp1cJpYEzxnPH0Z9beoy5maZIfwMMvE2PgErygqF7ysfkEb47T7DUYceHFh7ummls7TQyPOA2aT0ZFX/8s1O5t89frtt8YnJnIqy4tP1FRvMzSHW99wY1/jrdbDvX33tLpmOcZgwgRVM5hjicuXSzptSlLCmu9OIALZvmNbyS8vNtx61zUzY9hlpfPsdF9ie1ffQbfbE9N9p//j8qK8kxnEWl3te7a0dRbfuN3+Wpuj7+WxickC2s6M7hCQteQWKpQV5x8rzs/+KJSFZyEayzXlSqNfnWMTPBnQuPW6H02SyGCYEB/nXbFAkg5Ye67u8s/Hp1wFNHSJNRyLq8/vSLIEt9q6oG9gyKMoMoRq2jpJks/nZqWfe2Z7+bHkxAT3at/HHhcrbS0r/LVzYjKfLnpQK9yIxaBtA9H2R85Dc3vPQfqeV663vJ6RlliflZFaZ4+L6UhNTlpSkPru9iePj0/l9A+NVt8ZGKyZmJzKGpu4X0y3JAmC8faqHc1LPYWi0mPbt5Ycf1x1VlNd8cGdgaGaqQ7XflVlDVvAdL6dnuPee/feHuf4xB7iFu9LTUps3JyeUp+WktiYkZaypFiOjU/yxDLP7+sfrL03PFI56pwoIOVcPU+8MTrtYvScpgXXOske11JZVnQi1BO7cP62X3+16WhrV+9+0kY48gz71+t+REmEMLPl9F/8+28dSUtOnAxYIOm8yxdXrv94YHCknCeNhGONu9Z6W2XA6xXpvi/DCxdrO7LQPIzyHoHn9pSX5P+G/Mht5P2eq9l+enxiMudPdVfeJcJreHP9goVD73NwZKy4t3+wuKevf78j+S5s2mQ7bouMGLJGhDvNguBmGFbSLQ3Z4vF4bPPz3qjJKVfW/anpV0ec4zBxf1qLYqLzYHwQ7ovek0jqNiczo35HVekv6TTD46q3RLvdW1VR9E/O8fsFwyPjOWazYFgkadunz+SadcPElGtvd9+9vYnddyA5Mf5ERLjVabGYXDSah7jKEpErnmZfp2nTZqbdyV7RZyWDzxtEHGFyalpr/3Qjt9GMVwvWDyV2U3TfzqryXxALsnEDzD1qX+8OjlR237lXud7pKmk6wchw64F9L+1+k3wbmED2Dw7H0Bjrrp67+2lFBkMcv15INHbbbBJCXSA14aANPhjvWVVWcmJgcHjHjebOA2ZSBlrHC2JZUlEijQ7UvoEjmmWh5aNUv2rBM7qboy2+EOuF1aY8grdrSEvQQVw+YmE1vlS742dFeTmPfbvJ7me2n5mcnM68UH/trenpWcPHfiyUs0D6Ar1Uba/kOAyNjB1W/Tk/9ZVzFR5OU6YvcPm/kroOs1iC+pwerxci6SmfFUXHv7v3uV9tpDm+UOn/1MgID7d8o48vqXgXL19/42LDzdfp3IZRFwD5koyMFOfundvfz0hLaqKdRlKU4H7AgujRi7gyNLaYWqpfXvrP6P+xfnEECF79UpeaDio0G9N3Xtj10x1V5efXq6z/7LsvfrB9a/Fx2gllWQlyMetlR8uQ82+/0sp2oYwf+reW/s9gCsBHDd50b2mYRYDCvMwPn31m6wfYu4IsnIv9R6ejN4emXKLzGiiOwWdbWVE9cdu//69nL/yib2Cwhlp42mpxMDrugguzDn4LFSEaMZQUH9f+wu7t7zxTVX5uvct6x9bSX83OzNqbO3qOzM179MEhSG3a6PYnI+KoZds3C1BenP+rfS/ufjMpIcGNPesxCaQoSmZJkvfhWRZrR2lRfpNPFN/8b3/49Bf3hkbLQdb3OG7EMl8IF6WWY0ZacuNe4lbX7NgWElFR2VkZ/cS9fpO4tq5Ljbf+xuMTwcTwG7ScwR8lpEJUhBW2lRe+U7uz8v3U5Ccnd8GGEEjSUWWWZbGE1pjK8pJ6i9ny2sWG6280t3UfmfN4tG1UG63vUlfPxPNQXJJziiY5DrWFgvTU5MkXn9v5v0VFRQ5fvtb0+tjElBYmu9FEku72oJvXM9OSGnZuL/9FRWnBb+Jj8TiFxy6QyOOjuCCnxRYV8aY9Lq7jVkvHKwNDI5V0mp/nQrsD66vUeiBEWrK9qShvy+ntW0uPZ4Xo8Rh0D+aB7ya8HxMd1Xu58dYPe+8O7vUSa5L3zxWGcjnL/u1S0bZIyM/JPL6ttODDqopSDCVEgXw6SEtJmiTX+ylJ8U03mzteudM/WDM8Ol5AOwVdfQ0V11t3oxVtpdws8JCaGN+UlprUWFaY+5v1XIxZCbU120/Hx8Z03GrteKW3f7B2eGSsdmbWreWpFITQcb2pKNKsPNSdsEVaITU54SwZTE9vLcn/dYJ9Yx1ghwKJBIXqbWXn6XXuwsVXrzW1Hpm476r1ELeb5twE/yl1+srp45n+0DYJKap2VIKsZQNnIDw8DMItZkeiPb6lqrzwxLM7qzbcsRiF+dnt5PoZDR2kkUOO3v4996emy+dJWdMBQC9nfZX/cQmmoqgPNtZT6N5NW0QEPVPmfE5W2oWKkvwPs7M292MvCRGBVNSvVtjTyMJqofqYw3z2vrDrw4qSwt/cvTdY3dzhONh3d7BmZsZd6ZNlzaqgm8ypeOl7Gb/6uyvt0Kr+oN/4Xjs21L/vj87X0a/R0VH1eVkZ5wryss7QRaaNXr9FBTkt5PqPHV29OW1d3ftbOnoOTEy6aujuDVrG1FKmgrkQ2sl8taBXvOtAfUQ5L8CRMrbwJs3dDzeb2tNTkxryc7PO5mdnnk1KtIfMCvXDuvCkLOIupnP8EhXJaZ0EQi86+rEKpL8Nk/I49bhFMj4+RiJXfWVFSf3wqNN6b2i00tHT/8KdgcG3yb+1DcLAsP4+9rWOtwKYRX5CRSLcaqXx8mezMlLqcrOzziUkxLXYY5+8xCJEiBzken/XjskPRpxjxQMDw9VkcNrR1TtweHrG/aBgv37mjWqonPWfMuRdaJRacmI8jVf/WUZ6ypXEuNiWUDzqmLQ1ukO+nnytUZ+0fg7g/nofZxbr9M6xcb6r5+7eicmpHI5jPU+zmU1cS0tifGxLdeX6z7HRrNMu10zapMuVNT0zm+Sank2emSHX7NwbrukZbZvN5JQLpqbdAcXM0zm3TdGRQJP5Wswm6s7RqKH3Iq0RztjYaIctKmIoIjzcuSUz/alz7Wgk2eTkVNbU9Gza7Oysfco1kz49606ec88dpqc7erw+uO+aAY/Hu6QltXCcCM3kFB5mBnosstUaBjHRtvfpqrotwjoUGWkdskVFDpGf9YV6ZqsvLjfun7g/lclz3BOjC8RLsAgm3r3vxdrjAQkksnGgqc7m5722GfdcMq1PYvEkkw5sD8T9ETjWHUFjtU0mt0kQ3EQQ+4k146WJNbBkHyGa94ZivB6vbd7rs4miaJ2enUv2ka9LRyJpZ4FLRAiHyeDj4nnOYzGbpyMjrKOPMz4dWTkokAiCIIuAO8ERBEFQIBEEQVAgEQRBUCARBEFQIBEEQVAgEQRBUCARBEFQIBEEQVAgEQRBUCARBEFQIBEEQVAgEQRBEBRIBEEQFEgEQRAUSARBEBRIBEEQFEgEQRAUSARBEBRIBEEQFEgEQRAUSARBEBRIBEEQFEgEQRAEBRJBEAQFEkEQBAUSQRAEBRJBEOSx8f8LMADjU/IKpt8qngAAAABJRU5ErkJggg==;" vertex="1" parent="1">
                    <mxGeometry x="390" y="215" width="229.47" height="170" as="geometry"/>
                </mxCell>
                <mxCell id="6" value="" style="image;html=1;image=img/lib/clip_art/computers/Server_Tower_128x128.png;fontFamily=빙그레 싸만코체;fontSource=https%3A%2F%2Fcdn.jsdelivr.net%2Fgh%2Fprojectnoonnu%2Fnoonfonts_20-10%401.0%2FBinggraeSamanco-Bold.woff;fontSize=35;strokeWidth=3;fillColor=none;" vertex="1" parent="1">
                    <mxGeometry x="770" y="305" width="80" height="80" as="geometry"/>
                </mxCell>
                <mxCell id="7" value="USER SERVICE INSTANCE B" style="rounded=0;whiteSpace=wrap;html=1;fontFamily=빙그레 싸만코체;fontSource=https%3A%2F%2Fcdn.jsdelivr.net%2Fgh%2Fprojectnoonnu%2Fnoonfonts_20-10%401.0%2FBinggraeSamanco-Bold.woff;fontSize=20;strokeWidth=3;fillColor=#60a917;fontColor=#ffffff;strokeColor=#2D7600;" vertex="1" parent="1">
                    <mxGeometry x="750" y="355" width="120" height="60" as="geometry"/>
                </mxCell>
                <mxCell id="8" value="" style="image;html=1;image=img/lib/clip_art/computers/Server_Tower_128x128.png;fontFamily=빙그레 싸만코체;fontSource=https%3A%2F%2Fcdn.jsdelivr.net%2Fgh%2Fprojectnoonnu%2Fnoonfonts_20-10%401.0%2FBinggraeSamanco-Bold.woff;fontSize=35;strokeWidth=3;fillColor=none;" vertex="1" parent="1">
                    <mxGeometry x="770" y="170" width="80" height="80" as="geometry"/>
                </mxCell>
                <mxCell id="9" value="USER SERVICE INSTANCE A" style="rounded=0;whiteSpace=wrap;html=1;fontFamily=빙그레 싸만코체;fontSource=https%3A%2F%2Fcdn.jsdelivr.net%2Fgh%2Fprojectnoonnu%2Fnoonfonts_20-10%401.0%2FBinggraeSamanco-Bold.woff;fontSize=20;strokeWidth=3;fillColor=#60a917;fontColor=#ffffff;strokeColor=#2D7600;" vertex="1" parent="1">
                    <mxGeometry x="750" y="230" width="120" height="60" as="geometry"/>
                </mxCell>
                <mxCell id="12" value="" style="rounded=0;whiteSpace=wrap;html=1;" vertex="1" parent="1">
                    <mxGeometry x="-70" y="230" width="120" height="60" as="geometry"/>
                </mxCell>
                <mxCell id="13" value="" style="rounded=0;whiteSpace=wrap;html=1;" vertex="1" parent="1">
                    <mxGeometry x="420" y="30" width="120" height="60" as="geometry"/>
                </mxCell>
            </root>
        </mxGraphModel>
    </diagram>
</mxfile>